<svg width="903" height="182" viewBox="0 0 903 182" fill="none" xmlns="http://www.w3.org/2000/svg">
<path d="M124.773 25.6461H76.2324V140.757H48.5008V25.6461H0V0.276611H124.773V25.6856V25.6461Z" fill="#1740A9"/>
<path d="M114.487 84.9603C114.487 76.6619 115.911 68.9562 118.76 61.8828C121.608 54.8094 125.564 48.6843 130.667 43.5472C135.731 38.4101 141.784 34.3794 148.826 31.5342C155.828 28.6891 163.502 27.2665 171.81 27.2665C180.118 27.2665 187.792 28.6891 194.794 31.5342C201.797 34.3794 207.849 38.3706 212.913 43.5472C218.016 48.7239 221.972 54.8094 224.821 61.8828C227.669 68.9562 229.093 76.6619 229.093 84.9603C229.093 86.0273 229.093 87.0942 228.974 88.0821C228.895 89.07 228.698 90.3741 228.381 91.8757H140.36C141.744 99.7395 145.186 105.904 150.645 110.448C156.105 114.993 163.146 117.245 171.77 117.245C177.625 117.245 182.808 116.178 187.357 114.005C191.907 111.871 195.546 108.71 198.315 104.56H226.047C224.188 110.409 221.577 115.665 218.175 120.367C214.772 125.069 210.737 129.061 206.03 132.38C201.322 135.699 196.1 138.228 190.324 140.007C184.548 141.785 178.337 142.654 171.731 142.654C163.423 142.654 155.749 141.232 148.746 138.386C141.744 135.541 135.692 131.59 130.588 126.492C125.485 121.434 121.529 115.348 118.681 108.275C115.832 101.202 114.408 93.4168 114.408 84.9603H114.487ZM202.034 73.4216C199.858 66.9409 196.179 61.8828 190.957 58.1683C185.735 54.4932 179.326 52.636 171.77 52.636C164.214 52.636 157.608 54.4932 152.346 58.1683C147.124 61.8433 143.485 66.9409 141.467 73.4216H201.994H202.034Z" fill="#1740A9"/>
<path d="M341.364 71.1295H315.927C315.927 65.5972 313.712 61.1318 309.241 57.7334C304.771 54.335 298.837 52.6753 291.439 52.6753C285.426 52.6753 280.481 53.9398 276.525 56.4689C272.569 58.9979 270.631 62.1988 270.631 66.0318C270.631 69.8649 272.569 73.2238 276.406 76.069C280.244 78.9142 285.07 81.7198 290.846 84.486C296.622 87.2521 302.872 90.1763 309.558 93.2586C316.243 96.3409 322.494 100.016 328.27 104.323C334.046 108.63 338.872 113.768 342.709 119.774C346.547 125.781 348.485 133.012 348.485 141.469H323.048C323.048 135.778 321.109 131.036 317.272 127.282C313.435 123.528 308.608 120.09 302.833 117.008C297.057 113.926 290.806 110.962 284.121 108.117C277.435 105.272 271.184 101.992 265.409 98.3167C259.633 94.6417 254.806 90.2159 250.969 85.0392C247.132 79.9021 245.193 73.54 245.193 65.9923C245.193 60.6181 246.38 55.5995 248.793 50.9761C251.167 46.3527 254.49 42.3616 258.723 38.9631C262.956 35.5647 267.98 32.9567 273.756 31.0994C279.532 29.2421 285.901 28.3333 292.824 28.3333C299.747 28.3333 306.63 29.3607 312.564 31.455C318.498 33.5494 323.562 36.4736 327.835 40.2277C332.067 43.9817 335.391 48.4866 337.764 53.7423C340.138 58.9584 341.364 64.7278 341.364 71.0504V71.1295ZM261.413 111.515C266.042 111.515 269.879 113.056 272.965 116.139C276.05 119.221 277.593 123.054 277.593 127.677C277.593 132.301 276.05 136.134 272.965 139.216C269.879 142.298 266.042 143.84 261.413 143.84C256.784 143.84 252.947 142.298 249.861 139.216C246.776 136.134 245.233 132.301 245.233 127.677C245.233 123.054 246.776 119.221 249.861 116.139C252.947 113.056 256.784 111.515 261.413 111.515Z" fill="#1740A9"/>
<path d="M388.047 55.6785V92.6263C388.047 100.925 390.302 107.247 394.851 111.555C399.401 115.862 405.968 118.035 414.592 118.035V143.444C406.719 143.444 399.599 142.219 393.229 139.73C386.821 137.28 381.361 133.842 376.812 129.456C372.263 125.069 368.781 119.735 366.289 113.412C363.836 107.089 362.57 100.174 362.57 92.6263V0.276611H388.007V30.2695H414.592V55.6785H388.007H388.047Z" fill="#1740A9"/>
<path d="M261.649 111.515C266.277 111.515 270.115 113.056 273.2 116.138C276.286 119.221 277.829 123.054 277.829 127.677C277.829 132.301 276.286 136.134 273.2 139.216C270.115 142.298 266.277 143.839 261.649 143.839C257.02 143.839 253.183 142.298 250.097 139.216C247.012 136.134 245.469 132.301 245.469 127.677C245.469 123.054 247.012 119.221 250.097 116.138C253.183 113.056 257.02 111.515 261.649 111.515Z" fill="#FF963E"/>
<path d="M642.339 45.4832C637.118 45.4832 632.291 46.313 627.9 48.0122C623.509 49.7114 619.751 52.0824 616.586 55.1647C613.421 58.2469 610.968 61.922 609.188 66.2292C607.408 70.5365 606.538 75.318 606.538 80.5342V142.614H590.357V80.7713C590.357 73.2236 591.623 66.3083 594.155 59.9857C596.687 53.663 600.287 48.2888 604.916 43.8235C609.544 39.3581 615.043 35.8412 621.452 33.3121C627.86 30.7831 634.823 29.5186 642.379 29.5186V45.4436L642.339 45.4832Z" fill="#FF963E"/>
<path d="M651.598 84.9604C651.598 76.82 653.061 69.1933 655.989 62.1199C658.916 55.0465 662.951 48.9214 668.134 43.7843C673.277 38.6472 679.369 34.577 686.371 31.6528C693.373 28.7286 700.969 27.2665 709.118 27.2665C717.268 27.2665 724.863 28.7286 731.865 31.6528C738.867 34.577 744.96 38.6077 750.102 43.7843C755.245 48.961 759.32 55.0465 762.247 62.1199C765.175 69.1933 766.639 76.82 766.639 84.9604V87.0547C766.639 87.687 766.559 88.5959 766.401 89.8209H667.976C668.45 95.3531 669.835 100.411 672.129 104.956C674.424 109.5 677.391 113.373 681.03 116.613C684.63 119.853 688.863 122.343 693.611 124.121C698.397 125.899 703.54 126.769 709.079 126.769C717.386 126.769 724.824 124.793 731.391 120.881C737.918 116.969 742.823 111.515 746.067 104.6H763.632C761.773 110.29 759.083 115.467 755.522 120.051C751.962 124.635 747.848 128.665 743.179 132.064C738.472 135.462 733.25 138.07 727.474 139.928C721.698 141.785 715.566 142.694 709.118 142.694C700.969 142.694 693.373 141.232 686.371 138.307C679.369 135.383 673.277 131.353 668.134 126.176C662.951 121.039 658.916 114.953 655.989 107.959C653.061 100.964 651.598 93.2983 651.598 84.9999V84.9604ZM749.786 76.1877C747.927 66.1901 743.298 58.1683 735.94 52.2013C728.582 46.2343 719.602 43.1916 709.118 43.1916C698.635 43.1916 689.694 46.1948 682.296 52.2013C674.899 58.2078 670.27 66.1901 668.45 76.1877H749.786Z" fill="#FF963E"/>
<path d="M805.918 181.854H789.738V68.4026H805.918V83.7745C805.918 89.6229 806.947 94.9971 809.044 99.9366C811.14 104.876 813.989 109.144 817.589 112.74C821.189 116.375 825.501 119.221 830.406 121.275C835.351 123.37 840.652 124.397 846.349 124.397C852.046 124.397 857.347 123.37 862.292 121.275C867.237 119.181 871.509 116.336 875.109 112.74C878.709 109.144 881.597 104.876 883.654 99.9366C885.751 94.9971 886.779 89.6229 886.779 83.7745C886.779 77.926 885.751 72.5518 883.654 67.6123C881.557 62.6727 878.709 58.405 875.109 54.809C871.47 51.213 867.197 48.3283 862.292 46.2734C857.347 44.1791 852.046 43.1517 846.349 43.1517H789.738V27.2266H846.349C854.34 27.2266 861.777 28.6887 868.661 31.6129C875.544 34.5371 881.478 38.5282 886.582 43.6258C891.685 48.7235 895.68 54.6904 898.608 61.5267C901.535 68.3631 902.999 75.7921 902.999 83.814C902.999 91.8358 901.575 99.2253 898.726 106.101C895.878 112.938 891.962 118.904 886.938 124.002C881.913 129.06 876.059 133.091 869.373 136.015C862.687 138.939 855.408 140.401 847.536 140.401C839.228 140.401 831.474 138.742 824.314 135.422C817.153 132.103 811.022 127.598 805.958 121.908V181.933L805.918 181.854Z" fill="#FF963E"/>
<path d="M576.707 47.4987C576.707 54.4535 575.442 60.8947 572.91 66.7826C570.378 72.6706 566.817 77.7287 562.347 81.9174C557.837 86.1456 552.497 89.386 546.325 91.7174C540.154 94.0489 533.349 95.1949 525.912 95.1949H490.348V142.14H474.207V0H525.912C533.349 0 540.154 1.14597 546.404 3.47744C552.655 5.8089 558.035 9.04924 562.545 13.1589C567.055 17.3082 570.536 22.3267 573.028 28.1752C575.481 34.0631 576.747 40.5043 576.747 47.4591L576.707 47.4987ZM560.567 47.4987C560.567 42.7172 559.736 38.3309 558.075 34.4187C556.413 30.5066 554.039 27.0687 550.993 24.184C547.947 21.2993 544.268 19.0469 539.956 17.4267C535.684 15.8461 530.976 15.0162 525.873 15.0162H490.308V80.3763H525.873C530.818 80.3763 535.407 79.5859 539.6 77.9658C543.833 76.3851 547.472 74.0932 550.598 71.0899C553.723 68.1262 556.176 64.6092 557.916 60.6181C559.657 56.6269 560.527 52.2406 560.527 47.4196L560.567 47.4987Z" fill="#FF963E"/>
</svg>
