<svg width="790" height="160" viewBox="0 0 790 160" fill="none" xmlns="http://www.w3.org/2000/svg">
<path d="M109.159 22.4367H66.6927V123.143H42.4314V22.4367H0V0.241943H109.159V22.4713V22.4367Z" fill="white"/>
<path d="M100.161 74.3283C100.161 67.0684 101.407 60.327 103.899 54.1387C106.391 47.9504 109.852 42.5919 114.316 38.0976C118.746 33.6034 124.042 30.0771 130.202 27.5879C136.328 25.0988 143.042 23.8542 150.31 23.8542C157.578 23.8542 164.293 25.0988 170.419 27.5879C176.544 30.0771 181.84 33.5688 186.27 38.0976C190.734 42.6265 194.195 47.9504 196.687 54.1387C199.179 60.327 200.425 67.0684 200.425 74.3283C200.425 75.2618 200.425 76.1952 200.321 77.0595C200.252 77.9237 200.079 79.0646 199.802 80.3783H122.796C124.007 87.258 127.018 92.6511 131.794 96.6268C136.57 100.603 142.731 102.573 150.276 102.573C155.398 102.573 159.932 101.64 163.912 99.7382C167.892 97.8714 171.076 95.1057 173.499 91.4757H197.76C196.133 96.5922 193.849 101.19 190.873 105.304C187.896 109.418 184.366 112.91 180.248 115.814C176.129 118.718 171.561 120.93 166.508 122.486C161.455 124.042 156.021 124.802 150.241 124.802C142.973 124.802 136.259 123.558 130.133 121.069C124.007 118.58 118.712 115.122 114.247 110.663C109.782 106.238 106.322 100.914 103.83 94.7254C101.338 88.5371 100.092 81.7266 100.092 74.3283H100.161ZM176.752 64.2335C174.849 58.5638 171.63 54.1387 167.061 50.889C162.493 47.6739 156.886 46.049 150.276 46.049C143.665 46.049 137.885 47.6739 133.282 50.889C128.714 54.1041 125.53 58.5638 123.765 64.2335H176.718H176.752Z" fill="white"/>
<path d="M298.646 62.2283H276.392C276.392 57.3883 274.454 53.4818 270.543 50.5086C266.632 47.5355 261.44 46.0835 254.968 46.0835C249.708 46.0835 245.382 47.1898 241.921 49.4024C238.46 51.6149 236.764 54.4152 236.764 57.7686C236.764 61.122 238.46 64.0606 241.817 66.5497C245.174 69.0388 249.396 71.4934 254.449 73.9134C259.502 76.3334 264.971 78.8917 270.82 81.5882C276.669 84.2848 282.137 87.4999 287.19 91.2682C292.243 95.0365 296.465 99.5307 299.822 104.786C303.18 110.04 304.875 116.367 304.875 123.765H282.622C282.622 118.787 280.926 114.638 277.568 111.354C274.211 108.07 269.989 105.062 264.936 102.366C259.883 99.669 254.415 97.0762 248.566 94.587C242.717 92.0979 237.248 89.2285 232.195 86.0133C227.142 82.7982 222.92 78.9262 219.563 74.3974C216.206 69.9031 214.51 64.3372 214.51 57.734C214.51 53.0323 215.548 48.6418 217.659 44.5969C219.736 40.5521 222.643 37.0604 226.346 34.0873C230.049 31.1141 234.445 28.8324 239.498 27.2076C244.551 25.5827 250.123 24.7876 256.18 24.7876C262.236 24.7876 268.259 25.6865 273.45 27.5187C278.641 29.351 283.071 31.9093 286.809 35.1936C290.513 38.4778 293.42 42.419 295.496 47.0169C297.573 51.5803 298.646 56.6278 298.646 62.1592V62.2283ZM228.7 97.5602C232.749 97.5602 236.106 98.9084 238.806 101.605C241.505 104.302 242.855 107.655 242.855 111.7C242.855 115.745 241.505 119.098 238.806 121.795C236.106 124.491 232.749 125.839 228.7 125.839C224.65 125.839 221.293 124.491 218.594 121.795C215.894 119.098 214.544 115.745 214.544 111.7C214.544 107.655 215.894 104.302 218.594 101.605C221.293 98.9084 224.65 97.5602 228.7 97.5602Z" fill="white"/>
<path d="M339.488 48.7109V81.035C339.488 88.295 341.461 93.8264 345.441 97.5947C349.421 101.363 355.166 103.264 362.711 103.264V125.494C355.824 125.494 349.594 124.422 344.022 122.244C338.415 120.101 333.639 117.093 329.659 113.255C325.679 109.418 322.633 104.751 320.453 99.2195C318.307 93.6881 317.199 87.6382 317.199 81.035V0.241943H339.453V26.4816H362.711V48.7109H339.453H339.488Z" fill="white"/>
<path d="M228.907 97.5601C232.957 97.5601 236.314 98.9083 239.013 101.605C241.713 104.301 243.063 107.655 243.063 111.7C243.063 115.745 241.713 119.098 239.013 121.795C236.314 124.491 232.957 125.839 228.907 125.839C224.858 125.839 221.501 124.491 218.801 121.795C216.102 119.098 214.752 115.745 214.752 111.7C214.752 107.655 216.102 104.301 218.801 101.605C221.501 98.9083 224.858 97.5601 228.907 97.5601Z" fill="#FF963E"/>
<path d="M561.958 39.7915C557.389 39.7915 553.167 40.5175 549.325 42.0041C545.483 43.4906 542.195 45.5649 539.427 48.2615C536.658 50.958 534.512 54.1732 532.955 57.9414C531.397 61.7097 530.636 65.8928 530.636 70.4562V124.768H516.48V70.6637C516.48 64.0606 517.588 58.0106 519.803 52.4792C522.018 46.9478 525.168 42.2461 529.217 38.3395C533.266 34.433 538.077 31.3561 543.684 29.1436C549.29 26.931 555.382 25.8247 561.992 25.8247V39.7569L561.958 39.7915Z" fill="#FF963E"/>
<path d="M570.057 74.3283C570.057 67.2066 571.337 60.5344 573.898 54.3461C576.459 48.1579 579.99 42.7993 584.523 38.305C589.023 33.8108 594.353 30.2499 600.478 27.6917C606.604 25.1334 613.249 23.8542 620.379 23.8542C627.509 23.8542 634.154 25.1334 640.28 27.6917C646.405 30.2499 651.735 33.7762 656.235 38.305C660.734 42.8339 664.299 48.1579 666.86 54.3461C669.421 60.5344 670.701 67.2066 670.701 74.3283V76.1606C670.701 76.7138 670.632 77.5089 670.494 78.5806H584.385C584.8 83.4206 586.012 87.8457 588.019 91.8214C590.026 95.7971 592.622 99.1851 595.806 102.02C598.956 104.855 602.659 107.033 606.812 108.588C611 110.144 615.499 110.905 620.344 110.905C627.612 110.905 634.119 109.176 639.864 105.754C645.575 102.331 649.866 97.5602 652.704 91.5103H668.071C666.444 96.4885 664.091 101.017 660.976 105.028C657.861 109.038 654.262 112.564 650.178 115.537C646.059 118.51 641.491 120.792 636.438 122.417C631.385 124.042 626.02 124.837 620.379 124.837C613.249 124.837 606.604 123.558 600.478 121C594.353 118.441 589.023 114.915 584.523 110.386C579.99 105.892 576.459 100.568 573.898 94.4488C571.337 88.3297 570.057 81.6229 570.057 74.3629V74.3283ZM655.958 66.6535C654.331 57.907 650.282 50.889 643.844 45.6687C637.407 40.4485 629.551 37.7865 620.379 37.7865C611.207 37.7865 603.386 40.4139 596.914 45.6687C590.442 50.9236 586.392 57.907 584.8 66.6535H655.958Z" fill="#FF963E"/>
<path d="M705.067 159.097H690.912V59.8429H705.067V73.2911C705.067 78.4076 705.967 83.1093 707.802 87.4308C709.636 91.7522 712.128 95.4859 715.277 98.6318C718.427 101.812 722.199 104.302 726.491 106.099C730.817 107.932 735.455 108.83 740.438 108.83C745.422 108.83 750.06 107.932 754.386 106.099C758.712 104.267 762.45 101.778 765.6 98.6318C768.749 95.4859 771.276 91.7522 773.075 87.4308C774.91 83.1093 775.81 78.4076 775.81 73.2911C775.81 68.1745 774.91 63.4728 773.075 59.1514C771.241 54.83 768.749 51.0963 765.6 47.9503C762.416 44.8043 758.678 42.2806 754.386 40.4829C750.06 38.6507 745.422 37.7518 740.438 37.7518H690.912V23.8196H740.438C747.43 23.8196 753.936 25.0987 759.958 27.657C765.98 30.2153 771.172 33.707 775.636 38.1667C780.101 42.6264 783.597 47.8466 786.158 53.8275C788.719 59.8083 789.999 66.3077 789.999 73.3257C789.999 80.3436 788.753 86.8085 786.262 92.8239C783.77 98.8047 780.343 104.025 775.948 108.485C771.553 112.91 766.43 116.436 760.581 118.994C754.732 121.553 748.364 122.832 741.477 122.832C734.209 122.832 727.425 121.38 721.161 118.476C714.897 115.572 709.532 111.631 705.102 106.652V159.166L705.067 159.097Z" fill="#FF963E"/>
<path d="M504.539 41.5547C504.539 47.6392 503.431 53.2744 501.216 58.4255C499.001 63.5766 495.886 68.0017 491.975 71.6663C488.03 75.3654 483.358 78.2003 477.959 80.24C472.559 82.2797 466.607 83.2822 460.1 83.2822H428.986V124.353H414.865V0H460.1C466.607 0 472.559 1.00257 478.028 3.04227C483.496 5.08198 488.203 7.91683 492.149 11.5122C496.094 15.1422 499.14 19.5328 501.32 24.6493C503.466 29.8005 504.573 35.4356 504.573 41.5201L504.539 41.5547ZM490.418 41.5547C490.418 37.3716 489.691 33.5342 488.238 30.1116C486.784 26.689 484.707 23.6813 482.042 21.1576C479.378 18.6339 476.159 16.6634 472.386 15.2459C468.649 13.8631 464.53 13.1371 460.065 13.1371H428.951V70.318H460.065C464.392 70.318 468.406 69.6266 472.075 68.2092C475.778 66.8263 478.962 64.8212 481.696 62.1937C484.431 59.6009 486.576 56.5241 488.099 53.0324C489.622 49.5407 490.383 45.7032 490.383 41.4855L490.418 41.5547Z" fill="#FF963E"/>
</svg>
